<svg xmlns="http://www.w3.org/2000/svg" viewBox="0 0 512 512" width="512" height="512"><rect width="512" height="512" rx="0" fill="#3182F6"/><path d="M346.52,256.00 L372.57,263.33 L370.50,279.09 L343.44,279.43 L334.39,301.26 L353.29,320.64 L343.61,333.24 L320.01,320.01 L301.26,334.39 L307.93,360.62 L293.25,366.70 L279.43,343.44 L256.00,346.52 L248.67,372.57 L232.91,370.50 L232.57,343.44 L210.74,334.39 L191.36,353.29 L178.76,343.61 L191.99,320.01 L177.61,301.26 L151.38,307.93 L145.30,293.25 L168.56,279.43 L165.48,256.00 L139.43,248.67 L141.50,232.91 L168.56,232.57 L177.61,210.74 L158.71,191.36 L168.39,178.76 L191.99,191.99 L210.74,177.61 L204.07,151.38 L218.75,145.30 L232.57,168.56 L256.00,165.48 L263.33,139.43 L279.09,141.50 L279.43,168.56 L301.26,177.61 L320.64,158.71 L333.24,168.39 L320.01,191.99 L334.39,210.74 L360.62,204.07 L366.70,218.75 L343.44,232.57 Z M293.96,256.00 A37.96,37.96 0 1 0 218.04,256.00 A37.96,37.96 0 1 0 293.96,256.00 Z" fill="#fff" fill-rule="evenodd"/></svg>